<?xml version="1.0" standalone="no"?>
<!DOCTYPE svg PUBLIC "-//W3C//DTD SVG 20010904//EN"
 "http://www.w3.org/TR/2001/REC-SVG-20010904/DTD/svg10.dtd">
<svg version="1.0" xmlns="http://www.w3.org/2000/svg"
 width="564.000000pt" height="564.000000pt" viewBox="0 0 564.000000 564.000000"
 preserveAspectRatio="xMidYMid meet">
<metadata>
Created by potrace 1.14, written by Peter Selinger 2001-2017
</metadata>
<g transform="translate(0.000000,564.000000) scale(0.100000,-0.100000)"
fill="#000000" stroke="none">
<path d="M3359 4219 c-291 -42 -596 -199 -853 -438 l-74 -68 -133 -6 c-359
-15 -637 -129 -919 -377 -84 -74 -125 -102 -206 -140 -156 -74 -203 -135 -204
-264 0 -37 7 -96 16 -130 20 -79 93 -230 136 -281 25 -29 37 -58 47 -105 7
-36 21 -85 32 -110 l20 -46 -50 -82 c-134 -222 -161 -416 -64 -453 33 -12 65
-6 175 36 48 19 112 38 143 44 l56 10 72 -60 c152 -128 321 -224 487 -277 135
-43 226 -56 380 -55 210 0 397 40 656 139 78 30 146 54 151 54 5 0 42 -16 82
-36 182 -90 410 -157 531 -156 118 0 170 32 170 104 0 55 -21 99 -95 198 -57
76 -125 208 -125 240 0 7 31 45 69 86 37 41 92 115 121 164 l53 90 46 -43
c127 -118 306 -200 466 -213 62 -6 73 -4 98 16 41 32 36 69 -27 190 -101 196
-136 320 -136 488 0 161 35 328 106 500 19 46 34 100 34 122 0 84 -74 106
-185 56 -128 -58 -264 -219 -400 -471 -26 -49 -50 -92 -51 -94 -2 -1 -74 59
-161 136 -177 155 -272 233 -385 316 l-76 57 -8 66 c-14 138 16 313 80 458 14
31 52 96 85 144 32 48 62 96 65 108 10 34 -27 71 -85 83 -55 12 -60 12 -140 0z
m156 -68 c3 -5 -23 -52 -58 -103 -114 -167 -161 -320 -162 -520 0 -76 -2 -138
-4 -138 -2 0 -38 19 -80 41 -89 49 -85 42 24 -38 159 -118 520 -422 679 -573
49 -47 91 -80 93 -74 2 6 30 62 61 125 156 307 339 509 462 509 38 0 39 -19 5
-96 -35 -79 -73 -204 -95 -309 -60 -296 -26 -477 158 -828 23 -45 6 -53 -80
-37 -184 32 -328 113 -452 252 -48 54 -56 60 -62 43 -21 -59 -67 -151 -99
-199 -51 -77 -144 -180 -149 -164 -2 7 -9 38 -15 68 -9 48 -10 39 -7 -70 5
-156 28 -221 128 -354 81 -109 100 -156 73 -186 -51 -56 -360 9 -604 128 -108
52 -212 145 -249 222 -28 60 -46 179 -38 265 7 87 -7 67 -24 -31 -21 -132 16
-255 110 -357 29 -32 51 -59 49 -61 -13 -13 -142 -63 -263 -102 -183 -59 -332
-84 -496 -84 -210 0 -342 31 -535 125 -186 90 -360 239 -459 393 -82 127 -205
392 -195 421 2 6 40 -14 83 -44 154 -106 331 -184 506 -221 110 -23 341 -24
454 0 l79 16 66 -70 c56 -59 71 -70 99 -70 71 0 92 37 93 163 l0 76 46 26 c52
28 58 26 78 -31 l14 -39 1 38 c0 68 -47 136 -120 172 -35 17 -34 17 14 -34 28
-28 48 -52 45 -55 -15 -14 -178 -89 -249 -114 -138 -49 -239 -66 -390 -66
-148 -1 -230 14 -380 66 -180 64 -327 153 -446 273 -63 64 -90 100 -123 166
-78 159 -91 288 -37 369 21 32 46 49 130 89 100 48 163 92 275 194 142 128
335 229 540 282 81 21 258 45 334 45 48 0 57 -3 57 -17 1 -25 19 -47 60 -72
46 -27 59 -27 32 2 -64 68 5 161 237 321 201 139 377 219 566 260 79 16 211
21 220 7z m-930 -1922 c13 -40 -5 -130 -31 -156 -22 -22 -25 -23 -53 -8 -32
16 -105 97 -101 111 2 8 149 69 172 73 4 1 10 -8 13 -20z m-1281 -114 c21 -42
62 -113 91 -159 l53 -85 -52 -11 c-28 -7 -87 -27 -131 -45 -107 -43 -123 -46
-140 -28 -22 22 -18 78 13 168 25 74 108 235 121 235 3 0 23 -34 45 -75z"/>
<path d="M1569 3281 c-3 -7 -20 -15 -39 -16 -83 -7 -139 -152 -65 -171 37 -9
66 1 105 38 l35 33 -16 65 c-8 36 -17 59 -20 51z m-29 -66 c0 -8 -7 -15 -15
-15 -8 0 -15 7 -15 15 0 8 7 15 15 15 8 0 15 -7 15 -15z"/>
<path d="M2267 3023 c-41 -4 -50 -9 -72 -41 -44 -64 -25 -142 34 -142 21 0 39
11 66 41 34 38 37 46 32 85 -2 24 0 47 6 53 8 8 7 10 -3 9 -8 -1 -36 -3 -63
-5z m31 -71 c2 -7 -6 -12 -17 -12 -21 0 -27 11 -14 24 9 9 26 2 31 -12z"/>
<path d="M1144 2896 c-17 -13 -15 -14 25 -9 34 5 46 2 53 -11 11 -19 38 -22
38 -3 0 36 -77 51 -116 23z"/>
<path d="M1610 2730 c-22 -14 -3 -41 23 -34 19 4 29 -1 46 -22 13 -17 21 -21
21 -12 0 39 -62 85 -90 68z"/>
<path d="M3032 2650 c0 -14 2 -19 5 -12 2 6 2 18 0 25 -3 6 -5 1 -5 -13z"/>
<path d="M3021 2604 c0 -11 3 -14 6 -6 3 7 2 16 -1 19 -3 4 -6 -2 -5 -13z"/>
<path d="M3130 2569 c0 -11 -4 -28 -9 -38 -7 -13 -6 -18 5 -18 10 0 14 12 14
39 0 21 -2 38 -5 38 -3 0 -5 -9 -5 -21z"/>
<path d="M3010 2568 c0 -9 5 -20 10 -23 13 -8 13 5 0 25 -8 13 -10 13 -10 -2z"/>
<path d="M3267 2563 c-4 -3 -7 -17 -7 -30 0 -14 -5 -33 -10 -43 -6 -12 -7 -21
-1 -25 6 -3 13 11 16 32 4 21 9 46 12 56 5 18 1 22 -10 10z"/>
<path d="M3002 2520 c0 -14 2 -19 5 -12 2 6 2 18 0 25 -3 6 -5 1 -5 -13z"/>
<path d="M3121 2484 c0 -11 3 -14 6 -6 3 7 2 16 -1 19 -3 4 -6 -2 -5 -13z"/>
<path d="M2980 2453 c-23 -60 -23 -61 4 -14 28 47 30 51 18 51 -4 0 -14 -17
-22 -37z"/>
<path d="M3103 2464 c1 -11 -4 -28 -12 -38 -8 -9 -12 -19 -9 -22 12 -11 35 42
27 61 -8 19 -9 19 -6 -1z"/>
<path d="M3196 2353 c-6 -14 -5 -15 5 -6 7 7 10 15 7 18 -3 3 -9 -2 -12 -12z"/>
</g>
</svg>
